<svg id="Layer_2_1_" enable-background="new 0 0 512 512" height="512" viewBox="0 0 512 512" width="512" xmlns="http://www.w3.org/2000/svg"><g><g><g><ellipse cx="233.6" cy="482" fill="#c6c6c5" rx="175.1" ry="12.2"/><g><g><g><g><path d="m257.4 334.1h-47.6s-127.1-14.3-127.1 144.5h301.8c0-158.8-127.1-144.5-127.1-144.5z" fill="#0084ff"/></g><path d="m182.9 335.2c-34.9 5.3-92.3 28.4-99.5 123 27.6-93.5 79.5-110.4 99.5-123z" fill="#00c3ff"/><path d="m284.3 335.2c34.9 5.3 92.3 28.4 99.5 123-27.7-93.5-79.5-110.4-99.5-123z" fill="#00c3ff"/><g><ellipse cx="233.7" cy="346.1" fill="#0045c9" rx="50.6" ry="36.5"/></g><g><g><path d="m262.1 338.7c0 12.8-10.4 23.1-23.1 23.1h-10.8c-12.8 0-23.1-10.4-23.1-23.1v-31.7c0-12.8 57-12.8 57 0z" fill="#f7d0c2"/></g><path d="m262.1 325.1c0 11-10.4 19.8-23.1 19.8h-10.8c-12.8 0-23.1-8.9-23.1-19.8v-27.1c0-11 57-11 57 0z" fill="#e59d88"/><g><path d="m391 152c-8-13.6-27.5-8.9-27.5-8.9-7.8-61-59.9-108.1-123-108.1h-13.7c-63.5 0-115.8 47.7-123.2 109.2v-.6s-19.4-5.2-27.4 8.4-7.1 53.4 26.5 53.4v-.6c.4 68.2 55.8 123.3 124 123.3h13.7c68.3 0 123.6-55.1 124-123.3v.6c33.6-.1 34.6-39.8 26.6-53.4z" fill="#f7d0c2"/></g><path d="m233.7 285.1c-11.7 0-19-3.2-19-3.2s1.9 9.4 19 9.4 19-9.4 19-9.4-7.3 3.2-19 3.2z" fill="#e59d88"/><path d="m103.6 143.8s49.5-8 65.7-47.7c23.1-2.3 46.2-3.6 46.2-3.6s-19.8 13.9-18.1 22.5 102.9-13.2 102.9-13.2 24.9 36.9 63.2 41.4c-14.6-53-58.6-82.8-120.1-82.8-61.5-.1-116.2 26.6-139.8 83.4z" fill="#efb9ac"/><path d="m234.1 17.8c-139.6 0-141.6 124.9-141.6 124.9l11 1s38-8.3 60.5-55.3l71.1-7.7s-43.7 14.2-41.4 24.8 84-4.6 111.4-17.1c22.5 47.1 58.4 54.7 58.4 54.7l11.1-.6c.1 0-1-124.7-140.5-124.7z" fill="#8c3737"/><g><g><path d="m93.8 187.3s-6.2-7.5.2-13.3.6-15.3-6.4-12.9c-7.1 2.3-7.4 24.4 6.2 26.2z" fill="#e59d88"/><path d="m103.7 143.8s-18.8-6-27.6 8.7-.9 34.8 0 36.7c-2.9-9.3-5.5-48.5 27.2-41.3 1.4-.1 3.5-3.4.4-4.1z" fill="#f9e6e1"/><path d="m102.8 205.3s10.3 2.8 16.6 25 20.5 75.6 78.1 94.2c-51.6-11.7-93.8-59.6-94.7-119.2z" fill="#efb9ac"/></g><g><path d="m373.4 187.3s6.2-7.5-.2-13.3-.6-15.3 6.4-12.9c7.1 2.3 7.4 24.4-6.2 26.2z" fill="#e59d88"/><path d="m363.5 143.8s18.8-6 27.6 8.7.9 34.8 0 36.7c2.9-9.3 5.5-48.5-27.2-41.3-1.4-.1-3.5-3.4-.4-4.1z" fill="#f9e6e1"/><path d="m364.4 205.3s-10.3 2.8-16.6 25-20.5 75.6-78.1 94.2c51.6-11.7 93.8-59.6 94.7-119.2z" fill="#efb9ac"/></g></g><g fill="#ef7f68"><ellipse cx="135.4" cy="189.2" rx="14.2" ry="6.4"/><ellipse cx="331.8" cy="189.2" rx="14.2" ry="6.4"/></g><path d="m234.7 26.3c-18.3-4.6-88.7 8.7-117.2 58.3-5.9 15.2 24.7-16.5 66.7-31.9 30.6-11.1 63.8-23 50.5-26.4z" fill="#a54c4a"/><g><path d="m250.5 193.8c-4-17-9.9-31.2-16.9-31.2s-12.9 14.2-16.9 31.2 1.4 22 16.2 22h1.4c14.7 0 20.1-5 16.2-22z" fill="#efb9ac"/></g></g><g fill="#0045c9"><path d="m129.3 409.1c-1.6 0-2.9 1.3-2.9 2.9v66.6h5.9v-66.6c0-1.6-1.3-2.9-3-2.9z"/><path d="m337.1 409.1c-1.6 0-2.9 1.3-2.9 2.9v66.6h5.9v-66.6c-.1-1.6-1.4-2.9-3-2.9z"/></g></g></g><g><path d="m322.3 466.4c0 6.9-6.5 12.5-14.6 12.5h-148.3c-8 0-14.6-5.6-14.6-12.5l-11.7-89.1c0-6.9 6.5-12.5 14.6-12.5h174.6c8 0 14.6 5.6 14.6 12.5z" fill="#e5e3e3"/></g><ellipse cx="235" cy="421.9" fill="#fff" rx="22.3" ry="14.6"/><g fill="#8c3737"><path d="m155.7 122.3c-4.1 1.6-2.7 4.9.8 3.8 0 0 7.8-2.4 20.4 1.1 2 .6 4.5 1.8 5.6.4 2.9-1.6-7.1-12.2-26.8-5.3z"/><path d="m310.3 122.3c-19.7-6.9-29.7 3.8-26.8 5.3 1.1 1.4 3.6.1 5.6-.4 12.6-3.5 20.4-1.1 20.4-1.1 3.5 1 4.9-2.2.8-3.8z"/></g></g><g><path d="m428.2 483.5c0 5.5-4.5 10-10 10h-59.8c-5.5 0-10-4.5-10-10v-94.1c0-5.5 4.5-10 10-10h59.8c5.5 0 10 4.5 10 10z" fill="#ef7f68"/><path d="m415.2 442.5c-20.4-1.3-21.1 22.1-1.9 23.3-21.6-1.4-18.9 22.2-1 23.4 30.3 2 38.3-8 40.7-44.3s-4.3-47.2-34.6-49.2c-17.9-1.2-23.7 21.9-2.1 23.3-19.1-1.1-21.5 22.2-1.1 23.5z" fill="#f7d0c2"/></g><path d="m422.4 289.6s-2.6 13.3-20.9 13.3-21.2-13.3-21.2-13.3-11.6 1.5-12.7-10.9c-1.5-16.4 14.7-14.5 14.7-14.5s-2.3-15.6 15.9-15.6c17.4 0 17.7 13.7 17.7 13.7s20-6.7 23.6 7.5c5.2 21-17.1 19.8-17.1 19.8z" fill="#c6c6c5"/><path d="m370.4 317s15.3-4.2 20.4 5.6 2 22.7-14 23.8c-8.8 12.5-25.2 5.1-23-7.1-16.1-10.9 2.2-32.1 16.6-22.3z" fill="#c6c6c5"/><path d="m395.5 387.9c-33 0-39.7-2.8-39.7 10.3 0 13.4 54.4-10.3 39.7-10.3z" fill="#fcafa2"/></g><path d="m319.1 379.4c0 4-3.2 7.2-7.2 7.2h-156.6c-4 0-7.2-3.2-7.2-7.2 0-4 3.2-7.2 7.2-7.2h156.5c4 0 7.3 3.3 7.3 7.2z" fill="#fff"/></g><g><g fill="#8c3737"><path d="m233.7 275.8c-.1 0-.1 0 0 0z"/><path d="m233.7 237.1h-.1-43.2s2.1 38.7 43.2 38.7 43.2-38.7 43.2-38.7z"/></g><path d="m233.7 237.1h-.1-43.2s.2 3.4 1.5 8.2c5.8 1.2 12.8 1.3 41.7 1.3s35.9-.1 41.7-1.3c1.3-4.8 1.5-8.2 1.5-8.2z" fill="#fff"/><g fill="#ef7f68"><path d="m233.6 275.8c.1 0 .1 0 0 0z"/><path d="m233.7 257.4c-20.2 0-26.1 11.1-26.1 11.1s9.1 7.4 26.1 7.4 26.1-7.4 26.1-7.4-5.9-11.1-26.1-11.1z"/><path d="m233.6 257.4c.1 0 .1 0 0 0z"/></g></g><g fill="#8c3737"><path d="m150.8 165.9c2.6.8 6.5-5.7 17.3-5.2 9.9.5 11.6 9 16.4 7.5s-.7-14.8-15.7-15.3-22.6 11.5-18 13z"/><path d="m314.9 165.8c-2.6.8-6.5-5.7-17.3-5.2-9.9.5-11.6 9-16.4 7.5s.7-14.8 15.7-15.3 22.7 11.5 18 13z"/></g></g></svg>