<svg id="icons" height="512" viewBox="0 0 340 340" width="512" xmlns="http://www.w3.org/2000/svg" xmlns:xlink="http://www.w3.org/1999/xlink"><linearGradient id="linear-gradient" gradientUnits="userSpaceOnUse" x1="190.975" x2="192.666" y1="2.902" y2="315.589"><stop offset="0" stop-color="#444456"/><stop offset="1" stop-color="#363644"/></linearGradient><linearGradient id="linear-gradient-2" gradientUnits="userSpaceOnUse" x1="180.015" x2="180.669" y1="129.286" y2="258.109"><stop offset="0" stop-color="#6f6f81"/><stop offset="1" stop-color="#555568"/></linearGradient><linearGradient id="linear-gradient-3" gradientUnits="userSpaceOnUse" x1="163.936" x2="165.149" y1="115.256" y2="274.704"><stop offset="0" stop-color="#d8beac"/><stop offset="1" stop-color="#b99b86"/></linearGradient><linearGradient id="linear-gradient-4" x1="166.687" x2="168.377" xlink:href="#linear-gradient" y1="3.033" y2="315.72"/><linearGradient id="linear-gradient-5" x1="84.411" x2="76.237" xlink:href="#linear-gradient-2" y1="23.64" y2="80.532"/><linearGradient id="linear-gradient-6" gradientUnits="userSpaceOnUse" x1="97.009" x2="134.501" y1="47.706" y2="47.706"><stop offset="0" stop-color="#f771a8"/><stop offset="1" stop-color="#c14778"/></linearGradient><linearGradient id="linear-gradient-7" x1="166.907" x2="158.733" xlink:href="#linear-gradient-2" y1="35.493" y2="92.385"/><linearGradient id="linear-gradient-8" gradientUnits="userSpaceOnUse" x1="168.496" x2="166.255" y1="64.104" y2="119.008"><stop offset="0" stop-color="#ffe1db"/><stop offset="1" stop-color="#feb5a9"/></linearGradient><linearGradient id="linear-gradient-9" gradientUnits="userSpaceOnUse" x1="137.686" x2="137.389" y1="134.8" y2="222.037"><stop offset="0" stop-color="#fff7ee"/><stop offset="1" stop-color="#efd3cc"/></linearGradient><linearGradient id="linear-gradient-10" x1="148.989" x2="150.202" xlink:href="#linear-gradient-3" y1="115.369" y2="274.818"/><linearGradient id="linear-gradient-11" x1="128.676" x2="124.793" xlink:href="#linear-gradient-6" y1="220.758" y2="285.903"/><linearGradient id="linear-gradient-12" x1="89.079" x2="76.081" xlink:href="#linear-gradient-8" y1="190.823" y2="231.16"/><linearGradient id="linear-gradient-13" x1="29.035" x2="76.776" xlink:href="#linear-gradient-2" y1="284.523" y2="295.464"/><linearGradient id="linear-gradient-14" x1="86.496" x2="92.546" xlink:href="#linear-gradient-8" y1="317.962" y2="263.507"/><linearGradient id="linear-gradient-15" x1="118.444" x2="119.658" xlink:href="#linear-gradient-3" y1="115.602" y2="275.05"/><linearGradient id="linear-gradient-16" gradientUnits="userSpaceOnUse" x1="63.441" x2="79.68" y1="208.48" y2="258.507"><stop offset="0" stop-color="#7d7daf"/><stop offset="1" stop-color="#5c5c89"/></linearGradient><linearGradient id="linear-gradient-17" x1="106.527" x2="82.798" xlink:href="#linear-gradient-6" y1="146.291" y2="199.357"/><linearGradient id="linear-gradient-18" gradientUnits="userSpaceOnUse" x1="118.834" x2="321.874" y1="250.916" y2="250.916"><stop offset="0" stop-color="#e9f4ff"/><stop offset="1" stop-color="#fcffff"/></linearGradient><linearGradient id="linear-gradient-19" gradientUnits="userSpaceOnUse" x1="118.306" x2="310.065" y1="253.129" y2="253.129"><stop offset="0" stop-color="#b0c9fe"/><stop offset="1" stop-color="#99b4e7"/></linearGradient><linearGradient id="linear-gradient-20" gradientUnits="userSpaceOnUse" x1="111.843" x2="111.843" y1="266.911" y2="311.241"><stop offset="0" stop-color="#ffd58a"/><stop offset=".553" stop-color="#ffbe65"/><stop offset="1" stop-color="#ffae4c"/></linearGradient><linearGradient id="linear-gradient-21" x1="164.676" x2="171.238" xlink:href="#linear-gradient" y1="14.93" y2="293.82"/><path d="m163.849 231.433s15.857-14.047 49.859-29.146a1.727 1.727 0 0 1 2.338 1.037l4.362 13.3a1.714 1.714 0 0 1 -.874 2.079c-6.4 3.127-34.213 17.037-51.984 30.946z" fill="url(#linear-gradient)"/><path d="m190.772 234.411c2.961 11.747 7.622 33.458 6.491 49.971l-23.6 7.147-9.784-58.161 16.377-4.914a8.36 8.36 0 0 1 10.516 5.957z" fill="url(#linear-gradient-2)"/><path d="m171.048 225.585 7.9 10.356a8.355 8.355 0 0 1 1.562 6.643 30.875 30.875 0 0 1 -5.4 12.331 16.518 16.518 0 0 0 -2.859 12.279l3.748 24.044-26.39 4.08-.566-66.114z" fill="url(#linear-gradient-3)"/><path d="m164.435 106.657s14.464 6.827 26.669 26.484a6.6 6.6 0 0 1 -1.178 8.371c-7.113 6.445-21.941 20.706-29.53 34.016l-17.615-28.41s-.729-30.586 21.654-40.461z" fill="url(#linear-gradient-4)"/><path d="m145.863 83.582-4.905 23.648 18.762 22.5c3.239-12.915 5.208-26.576 24.924-29.81z" fill="#e78582"/><path d="m76.27 18.758c7.957-7.6 20.4-7.262 28.482.2 4.547 4.2 8.244 10.629 6.651 20.156 0 0-5.84 35.638-45.957 77.057a46.153 46.153 0 0 0 -12.657 29.906 1.622 1.622 0 0 1 -3.083.628c-5.665-11.731-14.706-39.383 5.07-70.805a71.78 71.78 0 0 0 10.644-30.564c.98-9.073 3.739-19.788 10.85-26.578z" fill="url(#linear-gradient-5)"/><path d="m98.748 30.017a11.867 11.867 0 0 0 .057 12.377 13.488 13.488 0 0 0 5.5 4.87c5.141 2.557 18.769 9.76 27.067 18.131l3.128-15.751s-25.387-11.529-35.752-19.627z" fill="url(#linear-gradient-6)"/><path d="m198.365 57s0-32.842-31.207-34.337c0 0-28.993-2.955-36.48 26.3-6.615 25.846 15.185 34.629 15.185 34.629z" fill="url(#linear-gradient-7)"/><path d="m198.365 57s.345 31.136-11.407 53.6a7.563 7.563 0 0 1 -6.7 4.07h-7.229a11.522 11.522 0 0 1 -6.606-2.072 42.969 42.969 0 0 1 -11.7-12.049 14.727 14.727 0 0 1 -2.125-6.5l-.627-6.986s-8.034 2.462-11.792-3.629a14.181 14.181 0 0 1 -1.105-11.653 8.227 8.227 0 0 1 12.874-4.281 13.806 13.806 0 0 1 4.82 7.246 100.3 100.3 0 0 1 4.7-12 14.893 14.893 0 0 1 13.126-8.417c7.488-.122 18.326.183 23.771 2.671z" fill="url(#linear-gradient-8)"/><path d="m160.69 138.458s9.425 42.9 18.737 64.117a17.283 17.283 0 0 1 1.235 10.091 32.868 32.868 0 0 1 -9.448 18 11.35 11.35 0 0 1 -7.807 3.038h-53.7v-7.182a11.9 11.9 0 0 0 -2.406-7.191c-.87-1.147-1.919-2.578-3.053-4.223 0 0-8-12.526-10.275-19.8l12.587-63.775s6.743-8.589 23.931-17.826c.001.007 19.924 8.593 30.199 24.751z" fill="url(#linear-gradient-9)"/><path d="m133.331 102.61s20.45 7.593 34.251 27.122l-6.892 8.726s-12.7-14.62-30.2-24.744z" fill="url(#linear-gradient-10)"/><path d="m108.59 229.2h44.01a7.579 7.579 0 0 1 7.343 9.409 141.113 141.113 0 0 0 -2.8 48.3 7.589 7.589 0 0 1 -7.541 8.408h-48.79a7.577 7.577 0 0 1 -7.57-7.031c-.776-11.112-.831-33.624 8.387-54.535a7.613 7.613 0 0 1 6.961-4.551z" fill="url(#linear-gradient-11)"/><path d="m105.871 196.236s-16.6 18.9-21.765 37.47l-21.456-14.82a84.215 84.215 0 0 1 15.063-36.8z" fill="url(#linear-gradient-12)"/><path d="m84.106 233.706c5.169-18.574 21.765-37.47 21.765-37.47l-28.158-14.15a78.3 78.3 0 0 0 -8.366 14.314c5.142 4.874 12.834 15.546 11.03 34.729z" fill="#e78582"/><path d="m25.923 278.726c12.45 2.514 40.383 7.6 60.393 7.092l-2.356 18.635s-40.612-3.173-61.654-10.068a6.092 6.092 0 0 1 -4.133-6.562l.49-3.878a6.1 6.1 0 0 1 7.26-5.219z" fill="url(#linear-gradient-13)"/><path d="m73.992 278.378-1.879 23.245a11.058 11.058 0 0 0 4.067 9.5c4.742 3.825 13.465 8.529 27.125 7.664v-22.627c0-3.857 1.3-7.035 0-10.667l-4.274-7.115s-15.078-4.553-25.039 0z" fill="url(#linear-gradient-14)"/><path d="m118.306 208.083 25.087-48.846c3-13.281-10.584-15.974-10.584-15.974s-25.295 28.137-36.677 41.117l-2.158 10.935c2.273 7.272 6.7 14.6 10.276 19.794a14.739 14.739 0 0 0 14.056-7.026z" fill="url(#linear-gradient-15)"/><path d="m52.078 208.083s18.953 4.062 32.349 18.613a20.6 20.6 0 0 1 5.288 11.304c1.189 9.186 4.1 27.98 9.316 40.377h-25.039s-21.629-30.735-21.914-70.294z" fill="url(#linear-gradient-16)"/><path d="m103.994 121.225a57.156 57.156 0 0 0 28.815 22.038 6.958 6.958 0 0 1 3.749 10.015l-26.491 46.07a8.646 8.646 0 0 1 -8.236 4.3c-9.5-.8-28.691-4.684-39.96-22.487a8.557 8.557 0 0 1 -.463-8.2c4.329-9.238 15.9-32.45 31.406-52.128a6.924 6.924 0 0 1 11.18.392z" fill="url(#linear-gradient-17)"/><path d="m310.072 206.9q6.048-6.558 11.788-13.83s.509 25.123-4.728 36.638c0 0-71.657 78.489-197.809 79.045l-.489-9.678c158.04-21.895 191.238-92.175 191.238-92.175z" fill="url(#linear-gradient-18)"/><g fill="#a53864"><circle cx="112.103" cy="243.231" r="3.688"/><circle cx="142.175" cy="243.818" r="3.688"/><circle cx="140.582" cy="273.492" r="3.688"/><circle cx="99.031" cy="134.771" r="3.688"/><circle cx="72.705" cy="178.6" r="3.688"/><circle cx="97.308" cy="192.214" r="3.688"/><circle cx="119.986" cy="150.271" r="3.688"/><circle cx="84.884" cy="156.216" r="3.688"/><circle cx="107.402" cy="171.225" r="3.688"/></g><path d="m176.428 87.129a2.913 2.913 0 0 1 -.591-.06l-3.147-.638a2.953 2.953 0 0 1 1.175-5.788l3.147.639a2.953 2.953 0 0 1 -.584 5.847z" fill="#e78582"/><path d="m189.064 87.623a2.953 2.953 0 0 1 -.441-5.872l2.415-.368a2.953 2.953 0 0 1 .889 5.839l-2.414.367a2.98 2.98 0 0 1 -.449.034z" fill="#e78582"/><path d="m128.412 167.445 3.154-5.485c-23.647-3.254-39.945-20.044-47.329-29.372q-1.78 2.619-3.458 5.231c8.137 9.981 24.258 25.618 47.633 29.626z" fill="#a53864"/><path d="m116.5 188.159 3.2-5.558c-25.552-2.75-42.021-18.551-49.3-27.285-1.084 1.974-2.1 3.868-3.034 5.656 8.21 9.42 24.448 23.765 49.134 27.187z" fill="#a53864"/><path d="m95.88 251.414c-.446 1.973-.83 3.929-1.159 5.855a184.283 184.283 0 0 0 42.443 4.767c6.079 0 12.569-.283 19.405-.932q.2-3.126.516-5.991a187.751 187.751 0 0 1 -61.205-3.699z" fill="#a53864"/><path d="m118.306 288.637.528 10.442c15.738 1.038 102.166 2.955 184.536-70.979a15.26 15.26 0 0 0 4.429-7.043 59.644 59.644 0 0 0 2.266-14.16c-77.949 84.515-191.759 81.74-191.759 81.74z" fill="url(#linear-gradient-19)"/><rect fill="url(#linear-gradient-20)" height="48.707" rx="6.83" width="17.076" x="103.305" y="270.979"/><path d="m110.136 326.76h3.415a6.83 6.83 0 0 0 6.83-6.831v-11.165a6.83 6.83 0 0 1 -6.83 6.83h-3.415a6.83 6.83 0 0 1 -6.831-6.83v11.165a6.831 6.831 0 0 0 6.831 6.831z" fill="#f78a40"/><path d="m89.715 238a20.591 20.591 0 0 0 -5.288-11.3 57.559 57.559 0 0 0 -9.386-8.147c3.673 10.648 13.208 43.512-4.875 53.637 2.272 3.977 3.826 6.192 3.826 6.192h25.039c-5.212-12.401-8.131-31.195-9.316-40.382z" fill="#4b4b5e"/><path d="m322.955 189.807a3.446 3.446 0 0 0 -3.8 1.136c-66.779 84.824-169.088 93.418-195.327 94.189v-7.323a10.287 10.287 0 0 0 -10.275-10.275h-3.415a10.279 10.279 0 0 0 -9.3 5.93 115.527 115.527 0 0 1 -3.372-11.612 3.26 3.26 0 0 0 .087-.357 98.991 98.991 0 0 1 7.23-26.354 4.167 4.167 0 0 1 3.807-2.492h44.01a4.083 4.083 0 0 1 3.232 1.571 4.152 4.152 0 0 1 .765 3.573 139.761 139.761 0 0 0 -3.767 34.721 3.445 3.445 0 0 0 3.444 3.4h.044a3.443 3.443 0 0 0 3.4-3.488 132.818 132.818 0 0 1 3.57-32.993 11.094 11.094 0 0 0 .307-2.29 14.741 14.741 0 0 0 9.335-3.412l3.28 4.3a4.919 4.919 0 0 1 .917 3.907 27.461 27.461 0 0 1 -4.805 10.949 20.088 20.088 0 0 0 -3.479 14.839l.258 1.655a3.446 3.446 0 0 0 3.4 2.914 3.365 3.365 0 0 0 .536-.042 3.443 3.443 0 0 0 2.872-3.935l-.257-1.653a13.152 13.152 0 0 1 2.239-9.72 34.408 34.408 0 0 0 6-13.713 11.817 11.817 0 0 0 -2.207-9.379l-1.384-1.814.945-.284a4.915 4.915 0 0 1 6.185 3.5 248.455 248.455 0 0 1 5.363 27.385 3.445 3.445 0 1 0 6.831-.9 255.032 255.032 0 0 0 -5.513-28.172 11.779 11.779 0 0 0 -14.22-8.57q.8-1.447 1.434-2.88a182.758 182.758 0 0 1 31.983-16.085l3.358 10.242c-3.482 1.724-17.818 9.205-25.346 13.355a3.445 3.445 0 0 0 3.327 6.034c11.038-6.085 27.623-14.46 27.71-14.5a3.444 3.444 0 0 0 1.791-4.183l-5.423-16.536a3.445 3.445 0 0 0 -4.487-2.151 204.191 204.191 0 0 0 -30.049 14.024 20.723 20.723 0 0 0 -1.61-11.127c-4.053-9.237-8.165-22.814-11.483-35.044a204.369 204.369 0 0 1 21.141-22.082 10.039 10.039 0 0 0 1.791-12.741 90.01 90.01 0 0 0 -10.452-13.747 10.982 10.982 0 0 0 6.432-5.389c12.016-22.964 11.814-53.925 11.8-55.231v-.009c-.012-1.109-.759-36.086-34.44-37.729-2.174-.165-28.858-1.607-38.475 23.966-3.727-1.808-8.753-4.318-13.716-7.014a24.409 24.409 0 0 0 -8.091-19.747c-9.513-8.778-24.094-8.846-33.2-.157-6.511 6.216-10.514 15.871-11.9 28.7a68.324 68.324 0 0 1 -10.069 29c-14.217 22.533-13.955 43.225-11.231 56.617 2.958 14.534 9.277 23.686 9.545 24.068a3.445 3.445 0 0 0 6.246-2.362c-2.3-20.319 11.206-33.494 11.336-33.618.036-.034.072-.07.107-.106 21.887-22.6 33.627-43.531 39.622-57.114a3.445 3.445 0 1 0 -6.3-2.782c-5.764 13.059-17.075 33.209-38.223 55.056a49.345 49.345 0 0 0 -12.884 25c-4.7-13.2-8.267-35.916 7.619-61.08a75.27 75.27 0 0 0 11.091-31.946c.827-7.675 3.2-18.147 9.8-24.452 6.478-6.185 16.918-6.081 23.767.238a17.49 17.49 0 0 1 5.742 10.689 75.253 75.253 0 0 1 -7.289-4.875 3.445 3.445 0 0 0 -4.989.806 15.306 15.306 0 0 0 0 16.106 16.928 16.928 0 0 0 6.9 6.135c4.595 2.285 16.051 8.333 24.057 15.493a29.9 29.9 0 0 0 8.494 14.643 15.627 15.627 0 0 0 1.923 4.754 11.532 11.532 0 0 0 3.677 3.743l-3.9 11.445c-1.431-.645-2.326-.985-2.493-1.047a3.445 3.445 0 0 0 -4.537 2.376l-2.469 9.656a104.676 104.676 0 0 0 -17.614 12 50.47 50.47 0 0 1 -3.049-4.1 10.184 10.184 0 0 0 -8.16-4.569 10.449 10.449 0 0 0 -8.594 3.952c-15.753 19.987-27.5 43.582-31.82 52.8a11.938 11.938 0 0 0 .669 11.507 48.994 48.994 0 0 0 8.235 9.881 92.421 92.421 0 0 0 -5.6 14.626 61.725 61.725 0 0 0 -8.8-2.793 3.445 3.445 0 0 0 -4.167 3.393c.263 36.568 17.966 65.351 21.828 71.2l-.2 2.515a396.049 396.049 0 0 1 -43.652-6.471 9.545 9.545 0 0 0 -11.36 8.163l-.49 3.877a9.552 9.552 0 0 0 6.478 10.269c13.049 4.276 33.149 7.135 47.949 8.8a14.456 14.456 0 0 0 4.835 7.35c4.955 4 13.366 8.532 26.021 8.532h.119a10.286 10.286 0 0 0 9.979 7.866h3.415a10.288 10.288 0 0 0 10.275-10.276v-7.794a295.935 295.935 0 0 0 143.91-40.406c33.452-19.64 51.2-38.885 51.94-39.695a3.435 3.435 0 0 0 .592-.9c5.5-12.089 5.058-37.076 5.036-38.134a3.446 3.446 0 0 0 -2.348-3.196zm-196.923-133.464a142.729 142.729 0 0 0 -20.189-12.163 10.065 10.065 0 0 1 -4.114-3.607 8.074 8.074 0 0 1 -1.236-5.082c7.707 5.113 18.9 10.772 26.43 14.394a41.6 41.6 0 0 0 -.891 6.458zm-57.202 243.141c-14.354-1.644-33.274-4.382-45.452-8.373a2.652 2.652 0 0 1 -1.788-2.856l.491-3.878a2.655 2.655 0 0 1 3.161-2.274 402.807 402.807 0 0 0 44.46 6.586zm119.347-164.526a3.153 3.153 0 0 1 -.564 4 223.725 223.725 0 0 0 -18.674 19.007c-2.207-8.587-3.841-15.639-4.528-18.661l5.875-7.437a3.447 3.447 0 0 0 .11-4.124 75.682 75.682 0 0 0 -4.833-6.123c.736-1.519 1.634-3.155 2.353-4.419a15 15 0 0 0 5.116.9h1.339a80.9 80.9 0 0 1 13.806 16.857zm-4.272-25.964a4.107 4.107 0 0 1 -3.644 2.222h-7.229a8.048 8.048 0 0 1 -4.633-1.451 39.293 39.293 0 0 1 -10.752-11.05 11.342 11.342 0 0 1 -1.616-4.978l-.627-6.986a3.445 3.445 0 0 0 -4.44-2.986c-.056.016-5.517 1.639-7.852-2.144-1.882-3.051-1.439-6.5-.735-8.859a4.851 4.851 0 0 1 3.2-3.277 4.573 4.573 0 0 1 4.255.738 10.469 10.469 0 0 1 3.624 5.488 3.444 3.444 0 0 0 3.242 2.481 3.493 3.493 0 0 0 3.334-2.356 96.129 96.129 0 0 1 4.531-11.578 11.4 11.4 0 0 1 10.087-6.477c8.976-.157 16.014.414 20.232 1.615-.201 7.561-1.601 31.68-10.977 49.598zm-21.869 4.606c-.454.794-.983 1.743-1.518 2.749a87.7 87.7 0 0 0 -17.291-12.767l4.3-12.616c.455.023.9.031 1.339.02l.3 3.364a18.266 18.266 0 0 0 2.633 8.011 44.843 44.843 0 0 0 10.237 11.239zm32.44-61.385q-2.315-.484-5.164-.8a36.658 36.658 0 0 0 -6.1-19.9c7.781 5.876 10.388 15.098 11.264 20.703zm-22.476-21.845c4.447 4.283 10.174 11.526 10.405 20.577q-2.772-.1-5.88-.078c-1.791-10.511-8.509-15.182-8.81-15.386a3.445 3.445 0 0 0 -3.889 5.687c.2.139 4.485 3.262 5.84 10.469a18.179 18.179 0 0 0 -7.447 4.32 33.7 33.7 0 0 0 -21.127-20.036 30.2 30.2 0 0 1 18.613-9.517 14.728 14.728 0 0 1 12.295 3.964zm-36.024 39.872c-2.727-4.749-4.274-11.4-1.961-20.434a36.821 36.821 0 0 1 2.975-7.883c3.448.792 16.142 4.769 20.246 20.943a3.427 3.427 0 0 0 .165.476c-.451 1.016-.9 2.087-1.356 3.241a17.068 17.068 0 0 0 -1.985-1.8 11.442 11.442 0 0 0 -4.175-2.028 18.324 18.324 0 0 0 -9.176-11.566 3.445 3.445 0 1 0 -2.9 6.251 11.405 11.405 0 0 1 4.991 5.75 11.769 11.769 0 0 0 -6.824 7.05zm-.317 37.172a79.644 79.644 0 0 1 27.592 22.244l-2.771 3.508a137.879 137.879 0 0 0 -26.013-21.093zm-5.235 10.265a132.931 132.931 0 0 1 27.1 22.409c1.437 6.418 10.039 44.02 18.749 63.871a13.808 13.808 0 0 1 1 8.079 29.454 29.454 0 0 1 -8.426 16.126 7.859 7.859 0 0 1 -5.441 2.1h-1.952c-.071-.1-.131-.2-.205-.293a10.93 10.93 0 0 0 -8.653-4.209h-39.474a15.418 15.418 0 0 0 -3.074-8.5c-.405-.536-.852-1.135-1.328-1.79a3.445 3.445 0 1 0 -5.575 4.048c.506.7.979 1.333 1.411 1.9a8.486 8.486 0 0 1 1.686 4.6 11.069 11.069 0 0 0 -7.764 6.348 96.217 96.217 0 0 0 -4.36 12.126c-.4-2.575-.729-4.936-.987-6.93a23.84 23.84 0 0 0 -3.4-9.522 109.4 109.4 0 0 1 12.041-20.948c.26.016.521.032.78.032a12.146 12.146 0 0 0 10.5-6.055l26.492-46.071a10.318 10.318 0 0 0 .742-8.73 10.46 10.46 0 0 0 -6.316-6.245 55.665 55.665 0 0 1 -19.323-11.59 97.64 97.64 0 0 1 15.777-10.756zm-45.624 104.47a67.257 67.257 0 0 0 -16.842-11.808 86.087 86.087 0 0 1 4.78-13.051 57.789 57.789 0 0 0 21.372 8.737 117.52 117.52 0 0 0 -9.31 16.122zm-20.018-42.834a5.146 5.146 0 0 1 -.255-4.894c4.218-9 15.682-32.031 30.993-51.457a3.476 3.476 0 0 1 2.758-1.336h.148a3.369 3.369 0 0 1 2.7 1.5 60.528 60.528 0 0 0 30.521 23.372 3.59 3.59 0 0 1 2.172 2.139 3.4 3.4 0 0 1 -.249 2.916l-26.49 46.07a5.228 5.228 0 0 1 -4.961 2.581c-9.512-.797-27.012-4.58-37.337-20.891zm-9.124 33.379c6.094 2.03 17.474 6.819 26.235 16.335a17.08 17.08 0 0 1 4.405 9.414c1.1 8.5 3.412 23.245 7.332 35.222-4.981-.818-12.051-1.346-18.248.527-4.501-7.23-18.204-31.523-19.724-61.498zm44.202 102.756c-10.56-.045-17.472-3.742-21.517-7a7.608 7.608 0 0 1 -2.8-6.545l1.7-21.087c6.738-2.121 15.551-.426 19.147.436l1.71 4.746a30.08 30.08 0 0 1 1.76 10.16zm17.076 4.479a3.39 3.39 0 0 1 -3.385 3.386h-3.415a3.39 3.39 0 0 1 -3.386-3.386v-42.12a3.389 3.389 0 0 1 3.386-3.385h3.415a3.389 3.389 0 0 1 3.385 3.385zm197.281-92.146c-2.716 2.847-20.159 20.541-50.2 38.142a289.034 289.034 0 0 1 -140.186 39.318v-13.219c25.864-.738 125.677-8.939 194.417-89.123-.348 7.821-1.331 18.505-4.031 24.882z" fill="url(#linear-gradient-21)"/></svg>