<svg id="Layer_2_1_" enable-background="new 0 0 512 512" height="512" viewBox="0 0 512 512" width="512" xmlns="http://www.w3.org/2000/svg"><g><g><g><ellipse cx="184.8" cy="481.4" fill="#c6c6c5" rx="175.1" ry="12.2"/><g><g><g><g><path d="m208.6 332.8h-47.6s-127.1-14.3-127.1 144.5h301.8c0-158.8-127.1-144.5-127.1-144.5z" fill="#ffec00"/></g><path d="m134.1 334.6c-34.9 5.3-92.3 28.4-99.5 123 27.6-93.5 79.5-110.4 99.5-123z" fill="#ffffaf"/><path d="m235.5 334.6c34.9 5.3 92.3 28.4 99.5 123-27.7-93.5-79.5-110.4-99.5-123z" fill="#ffffaf"/><g><ellipse cx="184.9" cy="345.6" fill="#78d900" rx="50.6" ry="36.5"/></g><g><g><path d="m213.3 347.6c0 12.8-10.4 13.6-23.1 13.6h-10.8c-12.8 0-23.1-.9-23.1-13.6v-41.2c0-12.8 57-12.8 57 0z" fill="#f7d0c2"/></g><path d="m213.3 324.5c0 11-10.4 19.8-23.1 19.8h-10.8c-12.8 0-23.1-8.9-23.1-19.8v-27.1c0-11 57-11 57 0z" fill="#e59d88"/><g><path d="m342.2 152c-8-13.6-27.5-8.9-27.5-8.9-7.8-61-59.9-108.1-123-108.1h-13.7c-63.5 0-115.8 47.7-123.2 109.2v-.6s-19.4-5.2-27.4 8.4-7.1 53.4 26.5 53.4v-.6c.4 68.2 55.8 123.3 124 123.3h13.7c68.3 0 123.6-55.1 124-123.3v.6c33.6-.1 34.6-39.8 26.6-53.4z" fill="#f7d0c2"/></g><path d="m184.9 284.5c-11.7 0-19-3.2-19-3.2s1.9 9.4 19 9.4 19-9.4 19-9.4-7.3 3.2-19 3.2z" fill="#e59d88"/><path d="m54.8 143.2s49.5-8 65.7-47.7c23.1-2.3 46.2-3.6 46.2-3.6s-19.8 13.9-18.1 22.5 102.9-13.2 102.9-13.2 24.9 36.9 63.2 41.4c-14.6-53-58.6-82.8-120.1-82.8-61.5-.1-116.2 26.6-139.8 83.4z" fill="#efb9ac"/><path d="m185.3 17.2c-139.6 0-141.6 124.9-141.6 124.9l11 1s38-8.3 60.5-55.3l71.1-7.7s-43.7 14.2-41.4 24.8 84-4.6 111.4-17.1c22.5 47.1 58.4 54.7 58.4 54.7l11.1-.6s-1-124.7-140.5-124.7z" fill="#8c3737"/><g><g><path d="m45 186.7s-6.2-7.5.2-13.3.6-15.3-6.4-12.9c-7.1 2.3-7.4 24.4 6.2 26.2z" fill="#e59d88"/><path d="m54.9 143.2s-18.8-6-27.6 8.7-.9 34.8 0 36.7c-2.9-9.3-5.5-48.5 27.2-41.3 1.4 0 3.5-3.4.4-4.1z" fill="#f9e6e1"/><path d="m54 204.8s10.3 2.8 16.6 25 20.5 75.6 78.1 94.2c-51.6-11.7-93.8-59.7-94.7-119.2z" fill="#efb9ac"/></g><g><path d="m324.6 186.7s6.2-7.5-.2-13.3-.6-15.3 6.4-12.9c7.1 2.3 7.4 24.4-6.2 26.2z" fill="#e59d88"/><path d="m314.7 143.2s18.8-6 27.6 8.7.9 34.8 0 36.7c2.9-9.3 5.5-48.5-27.2-41.3-1.4 0-3.5-3.4-.4-4.1z" fill="#f9e6e1"/><path d="m315.6 204.8s-10.3 2.8-16.6 25-20.5 75.6-78.1 94.2c51.6-11.7 93.8-59.7 94.7-119.2z" fill="#efb9ac"/></g></g><g fill="#ef7f68"><ellipse cx="86.6" cy="188.6" rx="14.2" ry="6.4"/><ellipse cx="283" cy="188.6" rx="14.2" ry="6.4"/></g><path d="m185.9 25.7c-18.3-4.6-88.7 8.7-117.2 58.3-5.9 15.2 24.7-16.5 66.7-31.9 30.6-11.1 63.8-23 50.5-26.4z" fill="#a54c4a"/><g><path d="m201.7 193.2c-4-17-9.9-31.2-16.9-31.2s-12.9 14.2-16.9 31.2 1.4 22 16.2 22h1.4c14.7 0 20.1-5 16.2-22z" fill="#efb9ac"/></g></g><g fill="#ff7c00"><path d="m80.5 408.5c-1.6 0-2.9 1.3-2.9 2.9v66.6h5.9v-66.6c0-1.6-1.3-2.9-3-2.9z"/><path d="m288.3 408.5c-1.6 0-2.9 1.3-2.9 2.9v66.6h5.9v-66.6c-.1-1.6-1.4-2.9-3-2.9z"/></g></g><path d="m224.3 334.1c-2.1-.6-4.3.5-5 2.6-.3 1-7.7 23.5-34.5 23.5-26.7 0-33.5-23.8-33.8-24.8-.6-2.1-2.8-3.4-4.9-2.8s-3.4 2.8-2.8 4.9c.1.3 8.6 30.8 41.5 30.8 32.8 0 42-28.9 42.1-29.2.7-2.2-.5-4.4-2.6-5z" fill="#51ac00"/></g><g fill="#8c3737"><path d="m106.9 121.7c-4.1 1.6-2.7 4.9.8 3.8 0 0 7.8-2.4 20.4 1.1 2 .6 4.5 1.8 5.6.4 2.9-1.6-7.1-12.2-26.8-5.3z"/><path d="m261.5 121.7c-19.7-6.9-29.7 3.8-26.8 5.3 1.1 1.4 3.6.1 5.6-.4 12.6-3.5 20.4-1.1 20.4-1.1 3.5 1 4.9-2.2.8-3.8z"/></g></g></g></g><g><g fill="#8c3737"><path d="m184.9 275.2c-.1 0-.1 0 0 0z"/><path d="m184.9 236.6h-.1-43.2s2.1 38.7 43.2 38.7 43.2-38.7 43.2-38.7z"/></g><path d="m184.9 236.6h-.1-43.2s.2 3.4 1.5 8.2c5.8 1.2 12.8 1.3 41.7 1.3s35.9-.1 41.7-1.3c1.3-4.8 1.5-8.2 1.5-8.2z" fill="#fff"/><g fill="#ef7f68"><path d="m184.8 275.2c.1 0 .1 0 0 0z"/><path d="m184.9 256.8c-20.2 0-26.1 11.1-26.1 11.1s9.1 7.4 26.1 7.4 26.1-7.4 26.1-7.4-5.9-11.1-26.1-11.1z"/><path d="m184.8 256.8c.1 0 .1 0 0 0z"/></g></g><path d="m102 165.3c2.6.8 6.5-5.7 17.3-5.2 9.9.5 11.6 9 16.4 7.5s-.7-14.8-15.7-15.3-22.6 11.6-18 13z" fill="#8c3737"/><path d="m266.1 165.2c-2.6.8-6.5-5.7-17.3-5.2-9.9.5-11.6 9-16.4 7.5s.7-14.8 15.7-15.3 22.7 11.5 18 13z" fill="#8c3737"/><path d="m319.3 101.6h-131.3-4.3-131.4s17.1-86.8 133.5-86.8 133.5 86.8 133.5 86.8z" fill="#78d900"/><path id="XMLID_1_" d="m188 91.7c98.4 0 119.1 9.9 119.1 9.9s-31.6 19.7-121.3 19.7-121.3-19.7-121.3-19.7 20.8-9.9 119.1-9.9z" fill="#51ac00"/><g><path d="m301.8 96.2c-10.7-.3-19-15.1-18.5-33.2.5-18 9.6-32.4 20.3-32.1 4 .1 155.6 5 170 5.4 7.5.2 3.3 21.3 3 32.6-.3 10 6.4 32.8-4.8 32.5-19.7-.5-165.2-5.1-170-5.2z" fill="#ff7c00"/><path d="m471.8 101.4c-10.7-.3-19-15.1-18.5-33.2.5-18 9.6-32.4 20.3-32.1s19 15.1 18.5 33.2c-.5 18-9.6 32.4-20.3 32.1z" fill="#ffb200"/><ellipse cx="472.7" cy="68.7" fill="#f40" rx="13.6" ry="8.1" transform="matrix(.027 -1 1 .027 391.344 539.374)"/></g><path d="m333 478s-22-10-23.1-40.7-1.3-57-1.3-57 25.8-5.6 26 10.4c.3 25.8 16.1 86-1.6 87.3z" fill="#f7d0c2"/><path d="m354.4 487.3c-.8 6.7-10.6 11-21.9 9.6-11.3-1.4-19.8-7.9-19-14.5l43.1-313.1c.8-6.7 5.3-9.4 16.6-8 11.3 1.4 13.1 6.8 12.3 13.4z" fill="#ba7d35"/><g><path d="m342.9 432.6c-20.3-2.5-16.7-25.6 2.5-23.3-21.5-2.6-14.4-25.4 3.4-23.2 30.1 3.7 36.2 14.9 31.8 51.1-4.4 36.1-13 45.6-43.1 41.9-17.8-2.2-19.2-25.9 2.3-23.3-19.3-2.3-17.2-25.7 3.1-23.2z" fill="#f7d0c2"/></g><path d="m497.1 77.3c-9.1-11-26.8-11.5-27.6-11.5 0 0 0 0-.1 0-1.6 0-3 1.3-3 2.9 0 1.7 1.3 3 2.9 3.1.2 0 15.7.5 23.1 9.4 3.3 4 4.5 9.3 3.4 15.8-3.5 21-33 25.8-61.6 30.3-29.7 4.8-60.4 9.7-64.1 33.5-.3 1.6.9 3.2 2.5 3.4h.5c1.5 0 2.7-1.1 3-2.5 3.1-19.5 30.3-23.9 59.1-28.5 30.6-4.9 62.3-10 66.5-35.3 1.5-8.3-.1-15.2-4.6-20.6z" fill="#8c3737"/><path d="m203.4 56.4c0 10.3-8.3 18.6-18.6 18.6-10.3 0-18.6-8.3-18.6-18.6 0-10.3 8.3-18.6 18.6-18.6 10.3.1 18.6 8.4 18.6 18.6z" fill="#ffec00"/><path d="m268.2 432.9c0 8.3-6.7 15-15 15h-135c-8.3 0-15-6.7-15-15 0-8.3 6.7-15 15-15h135c8.3 0 15 6.7 15 15z" fill="#78d900"/></g></svg>