<svg id="Layer_2_1_" enable-background="new 0 0 512 512" height="512" viewBox="0 0 512 512" width="512" xmlns="http://www.w3.org/2000/svg"><g><g><ellipse cx="207" cy="488.6" fill="#c6c6c5" rx="175.1" ry="12.2"/><g><path d="m230.8 340.1h-47.6s-158.8-28.3-127.1 144.5h301.8c38-169.5-127.1-144.5-127.1-144.5z" fill="#5883d0"/></g><path d="m102.7 415.1c-1.6 0-2.9 1.3-2.9 2.9v66.6h5.9v-66.6c-.1-1.5-1.4-2.9-3-2.9z" fill="#2358a5"/><path d="m312 415.1c-1.6 0-2.9 1.3-2.9 2.9v66.6h5.9v-66.6c-.1-1.5-1.4-2.9-3-2.9z" fill="#2358a5"/><g><path d="m235.5 357.4c0 7.7-10.4 10.5-23.1 10.5h-10.8c-12.8 0-23.1-1.4-23.1-12.4v-42.4c0-12.8 57-12.8 57 0z" fill="#f7d0c2"/></g><path d="m235.5 338.3c0 11-10.4 19.8-23.1 19.8h-10.8c-12.8 0-23.1-8.9-23.1-19.8v-27.1c0-11 57-11 57 0z" fill="#e59d88"/><g><path d="m364.3 158c-8-13.6-27.5-8.9-27.5-8.9-7.8-61-59.9-108.1-123-108.1h-13.7c-63.5 0-115.8 47.7-123.1 109.2v-.6s-19.4-5.2-27.4 8.4-7.1 53.4 26.5 53.4v-.6c.4 68.2 55.8 123.3 124 123.3h13.7c68.3 0 123.6-55.1 124-123.3v.6c33.6 0 34.5-39.8 26.5-53.4z" fill="#f7d0c2"/></g><path d="m90.1 154.5s37.3-28.5 114.8-28.5 103.2 21.6 120.2 27.6c-14.6-53-26.7-83.6-108.3-87.2-117.3-5.2-122.3 42.6-126.7 88.1z" fill="#efb9ac"/><path d="m207.4 23.9c-139.5 0-141.5 124.9-141.5 124.9l11 1s38-8.3 60.5-55.3l71.1-7.7s-43.7 14.2-41.4 24.8 84-4.6 111.4-17.1c22.5 47.1 58.4 54.7 58.4 54.7l11.1-.6c0-.1-1-124.7-140.6-124.7z" fill="#8c3737"/><g><g><path d="m67.2 193.3s-6.2-7.5.2-13.3.6-15.3-6.4-12.9c-7.1 2.3-7.4 24.5 6.2 26.2z" fill="#e59d88"/><path d="m77.1 149.8s-18.8-6-27.6 8.7-.9 34.8 0 36.7c-2.9-9.3-5.5-48.5 27.2-41.3 1.4 0 3.5-3.3.4-4.1z" fill="#f9e6e1"/><path d="m76.2 211.4s10.3 2.8 16.6 25 20.5 75.6 78.1 94.2c-51.6-11.7-93.8-59.6-94.7-119.2z" fill="#efb9ac"/></g><g><path d="m346.7 193.3s6.2-7.5-.2-13.3-.6-15.3 6.4-12.9c7.1 2.3 7.5 24.5-6.2 26.2z" fill="#e59d88"/><path d="m336.9 149.8s18.8-6 27.6 8.7.9 34.8 0 36.7c2.9-9.3 5.5-48.5-27.2-41.3-1.4 0-3.6-3.3-.4-4.1z" fill="#f9e6e1"/><path d="m337.7 211.4s-10.3 2.8-16.6 25-20.5 75.6-78.1 94.2c51.7-11.7 93.8-59.6 94.7-119.2z" fill="#efb9ac"/></g></g><g fill="#ef7f68"><ellipse cx="108.7" cy="195.2" rx="14.2" ry="6.4"/><ellipse cx="305.2" cy="195.2" rx="14.2" ry="6.4"/></g><path d="m208 32.4c-18.2-4.6-88.6 8.7-117.2 58.3-5.9 15.2 24.7-16.5 66.7-31.9 30.7-11.2 63.9-23.1 50.5-26.4z" fill="#a54c4a"/><g fill="#8c3737"><path d="m129.1 128.3c-4.1 1.6-2.7 4.9.8 3.8 0 0 7.8-2.4 20.4 1.1 2 .6 4.5 1.8 5.6.4 2.9-1.5-7.1-12.2-26.8-5.3z"/><path d="m283.7 128.3c-19.7-6.9-29.7 3.8-26.8 5.3 1.1 1.4 3.6.1 5.6-.4 12.6-3.5 20.4-1.1 20.4-1.1 3.5 1.1 4.9-2.2.8-3.8z"/></g><g><path d="m223.8 199.8c-4-17-9.9-31.2-16.9-31.2s-12.9 14.2-16.9 31.2 1.4 22 16.2 22h1.4c14.8 0 20.2-5 16.2-22z" fill="#efb9ac"/></g></g><path d="m207 291.5c-11.7 0-19-3.2-19-3.2s1.9 9.4 19 9.4 19-9.4 19-9.4-7.3 3.2-19 3.2z" fill="#e59d88"/><path d="m207 243.6h-.1-43.2s2.1 38.7 43.2 38.7 43.2-38.7 43.2-38.7z" fill="#8c3737"/><path d="m207 243.6h-.1-43.2s.2 3.4 1.5 8.2c5.8 1.2 12.8 1.3 41.7 1.3s35.9-.1 41.7-1.3c1.3-4.8 1.5-8.2 1.5-8.2z" fill="#fff"/><path d="m207 263.8c-20.2 0-26.1 11.1-26.1 11.1s9.1 7.4 26.1 7.4 26.1-7.4 26.1-7.4-5.9-11.1-26.1-11.1z" fill="#ef7f68"/><path d="m124.1 171.9c2.6.8 6.5-5.7 17.3-5.2 9.9.5 11.6 9 16.4 7.5s-.7-14.8-15.7-15.3c-14.9-.4-22.6 11.6-18 13z" fill="#8c3737"/><path d="m288.2 171.8c-2.6.8-6.5-5.7-17.3-5.2-9.9.5-11.6 9-16.4 7.5s.7-14.8 15.7-15.3 22.7 11.6 18 13z" fill="#8c3737"/><g><path d="m206.4 11.3c172.1 6.7 212.1 140 167.3 241.7-39.5 89.7-90 83.9-82.2 62.7 64.1-44.7 36.9-172 36.9-172-37.8-35.6-125.4-31.7-125.4-31.7h9s-87.5-3.9-125.4 31.6c0 0-27.3 127.3 36.9 172 7.8 21.2-42.6 27-82.2-62.7-44.4-100.8-5.5-232.7 163-241.5z" fill="#f00"/></g><g><path d="m280.4 120c-37.6-9.8-77.5-8-77.5-8h9s-40.5-1.8-78.3 8.2l5.6-97.7c19.1-6 40.7-9.8 65.1-11.1l2-.2c26.1 1 49.2 5 69.4 11.3z" fill="#ffed0f"/></g><g fill="#ffedeb"><path d="m207.2 284c75.9 0 115.7-9.1 135.3-15.3 16-5.1 13.3-20.5 5.3-17.4-17.1 6.7-57.1 17.2-140.6 17.2h.7c-83.5 0-123.5-10.5-140.6-17.2-8-3.2-10.8 12.3 5.3 17.4 19.6 6.3 59.5 15.3 135.4 15.3z"/><path d="m207.2 328.4c62.2 0 94.9-9.1 111-15.3 13.1-5.1 10.9-20.5 4.3-17.4-14 6.7-46.9 17.2-115.3 17.2h.7c-68.5 0-101.3-10.5-115.3-17.2-6.6-3.2-8.8 12.3 4.3 17.4 16.1 6.2 48.8 15.3 111 15.3z"/><path d="m127 279.7 16.6 29.3s5.8 11.5 16.5 8.9c4.1-1 5.2-4.9 3.2-9.4-5.5-12.4-11.8-26.3-11.9-26.4 0 0-24.4-2.4-24.4-2.4z"/><path d="m287.3 279.7-16.6 29.3s-5.8 11.5-16.5 8.9c-4.1-1-5.2-4.9-3.2-9.4 5.5-12.4 11.8-26.3 11.9-26.4 0 0 24.4-2.4 24.4-2.4z"/></g><path d="m270.8 339.8s49.5 1.9 78.3 39.9c22.1 33.5 12.5 84.6 12.5 84.6s-.6-54.6-27.2-83.5-63.6-41-63.6-41z" fill="#9ebfef"/><path d="m143.2 339.8s-45.1-1.3-77.2 39.9c-20.6 31.9-13 84.6-13 84.6s-.1-54.6 26.5-83.5 63.7-41 63.7-41z" fill="#9ebfef"/><path d="m123.5 401.1s35.5-36.8 60.5-12.6c25.8 25-9.1 54.6-9.1 54.6s32.2 10.6 23.3 41.6c-32.2 0-32.2 0-32.2 0s12.3-27-15.7-29.7c-2.7-10.3-4.3-14-4.3-14s23.3-9.3 15.7-27.3-33.3 1.5-33.3 1.5z" fill="#ffedeb"/><path d="m217.7 484.7s-20.2-95.3 27-104c46.2-8.5 45.9 79.1 27.4 104h-17.2s8.2-22.8 7.2-54.4c-1-32.8-27.5-29-29 2.1s.8 52.3.8 52.3z" fill="#ffedeb"/><path d="m56.1 484.7h43.7v-23.2h-47z" fill="#ffed0f"/><path d="m361.1 484.4h-49.1v-20.2h52.6z" fill="#ffed0f"/><g><g><g><ellipse cx="382" cy="387.2" fill="#ad5a5a" rx="120.8" ry="85" transform="matrix(.753 -.658 .658 .753 -160.388 346.748)"/><path d="m473 307.7c30.9 35.4 15.2 99.6-35.1 143.5s-116 50.8-146.9 15.4c0 0 53-21.6 103.2-65.4 50.3-43.9 78.8-93.5 78.8-93.5z" fill="#934141"/><g fill="#e3e5eb"><path d="m275.4 415.7c.8-12.1 4-24.8 9.5-37.4 0 0 22.4 32 43.2 55.9 20.9 23.9 49.5 50.5 49.5 50.5-13.2 3.7-26.1 5.2-38.2 4.3 0 0-19.5-17.5-34.4-34.5-14.9-17.1-29.6-38.8-29.6-38.8z"/><path d="m488.9 358.3c-.8 12.1-4 24.8-9.5 37.4 0 0-22.4-32-43.2-55.9-20.9-23.9-49.5-50.5-49.5-50.5 13.2-3.7 26.1-5.2 38.2-4.3 0 0 19.5 17.5 34.4 34.5s29.6 38.8 29.6 38.8z"/></g></g><g fill="#e3e5eb"><path d="m416.8 416.1c2.7 3.1 2.4 7.9-.7 10.7-3.1 2.7-7.9 2.4-10.7-.7l-35.1-40.2c-2.7-3.1-2.4-7.9.7-10.7 3.1-2.7 7.9-2.4 10.7.7z"/><path d="m385.1 439.6c2.7 3.1 2.4 7.9-.7 10.7-3.1 2.7-7.9 2.4-10.7-.7l-35.1-40.2c-2.7-3.1-2.4-7.9.7-10.7 3.1-2.7 7.9-2.4 10.7.7z"/><path d="m444.9 387.3c2.7 3.1 2.4 7.9-.7 10.7-3.1 2.7-7.9 2.4-10.7-.7l-35.1-40.3c-2.7-3.1-2.4-7.9.7-10.7 3.1-2.7 7.9-2.4 10.7.7z"/></g></g><path d="m421.4 440.1c-13.5-15.4-30.6.6-17.9 15.1-14.2-16.3-29.1 2.4-17.3 15.9 20 22.9 32.7 21.5 60.1-2.5s30.4-36.4 10.4-59.2c-11.8-13.5-32.2-1.3-18 15-12.6-14.5-30.7.3-17.3 15.7z" fill="#f7d0c2"/></g><path d="m117.4 41.2c-18.6 3.1-77.6 43.7-83.7 100.6.7 16.3 15.9-25.1 48.2-56.1 23.5-22.6 49.1-46.8 35.5-44.5z" fill="#f47373"/><path d="m208 88.3c-81.6 0-124.4 18.1-145.5 24.8-17.2 5.5-14.3 22.1-5.7 18.7 18.4-7.2 61.4-26.8 151.1-26.8h-.8c89.7 0 132.8 19.6 151.1 26.8 8.6 3.4 11.6-13.2-5.7-18.7-21.1-6.7-63.9-24.8-145.5-24.8z" fill="#ffedeb"/></g></svg>